<?xml version="1.0" encoding="utf-8"?>
<!-- Generator: Adobe Illustrator 22.1.0, SVG Export Plug-In . SVG Version: 6.00 Build 0)  -->
<svg version="1.1" id="Layer_1" xmlns="http://www.w3.org/2000/svg" xmlns:xlink="http://www.w3.org/1999/xlink" x="0px" y="0px"
	 viewBox="0 0 1000 1000" style="enable-background:new 0 0 1000 1000;" xml:space="preserve">
<style type="text/css">
	.st0{fill:#FFFFFF;}
</style>
<g>
	<path class="st0" d="M235.5,829.4c-44.5,0-83.5-8.6-115.9-25.4c-34.7-18.1-58-42.2-69.3-71.7c-10.1-26.2-14.9-61-14.9-106.5v-66.2
		h104.9c-28-18.5-47.1-32.4-58.1-42.3c-15.3-13.7-27.8-32.3-37.4-55.3c-9.4-22.7-14-50.1-14-83.7c0-48,6.7-83.1,20.5-107.5
		c14.3-25.2,37.2-45,68.1-58.7c28.8-12.8,63.3-19.3,102.7-19.3c42.7,0,80,7,111,20.8c33.8,15.1,56.9,35.3,68.8,60.2
		C412.7,296.4,418,331.1,418,380v51.9H303.3c48.5,30.6,80,56.8,96,79.6c20.9,29.8,31,73.9,31,134.8c0,44.5-5.7,77.4-17.4,100.4
		c-12.6,24.8-35.9,45.2-69.3,60.8C312.4,822,276,829.4,235.5,829.4z"/>
	<path d="M401.7,401.9H268.1v-41c0-19.1-1.7-31.3-5.1-36.6c-3.4-5.2-9.1-7.9-17.1-7.9c-8.7,0-15.2,3.5-19.7,10.6s-6.7,17.8-6.7,32.2
		c0,18.5,2.5,32.4,7.5,41.7c4.8,9.4,18.3,20.6,40.7,33.8c64.1,38,104.4,69.2,121,93.6c16.6,24.4,25,63.7,25,117.9
		c0,39.4-4.6,68.5-13.8,87.2c-9.2,18.7-27.1,34.4-53.5,47c-26.4,12.6-57.2,19-92.3,19c-38.5,0-71.4-7.3-98.6-21.9
		c-27.2-14.6-45.1-33.2-53.5-55.7c-8.4-22.6-12.6-54.6-12.6-96v-36.2H223v67.3c0,20.7,1.9,34.1,5.6,40c3.8,5.9,10.4,8.9,20,8.9
		s16.7-3.8,21.4-11.3c4.7-7.5,7-18.7,7-33.5c0-32.6-4.4-53.9-13.3-63.9c-9.1-10-31.6-26.8-67.3-50.2c-35.8-23.7-59.5-40.9-71.1-51.6
		c-11.6-10.7-21.3-25.5-28.9-44.4c-7.6-18.9-11.5-43.1-11.5-72.5c0-42.4,5.4-73.4,16.2-93c10.8-19.6,28.3-34.9,52.5-46
		c24.1-11,53.3-16.6,87.5-16.6c37.4,0,69.2,6,95.5,18.1c26.3,12.1,43.8,27.3,52.3,45.6c8.5,18.3,12.8,49.5,12.8,93.5V401.9z"/>
	<path class="st0" d="M415,817.8V204.4h248.2l4.3,25.1c2.1,12.4,4.3,25.7,6.4,39.8l8.5-64.9h250.3v613.4H415z"/>
	<path d="M902.8,234.4v553.4H777l-0.2-373.6l-50.1,373.6h-89.2l-52.8-365l-0.2,365H458.8V234.4H645c5.5,33.3,11.2,72.5,17.1,117.6
		l20.4,140.8l33.1-258.4H902.8z"/>
</g>
</svg>
